<?xml version="1.0" encoding="utf-8"?>
<!-- Generator: Adobe Illustrator 17.0.2, SVG Export Plug-In . SVG Version: 6.00 Build 0)  -->
<!DOCTYPE svg PUBLIC "-//W3C//DTD SVG 1.1//EN" "http://www.w3.org/Graphics/SVG/1.1/DTD/svg11.dtd">
<svg version="1.1" id="Layer_1" xmlns="http://www.w3.org/2000/svg" xmlns:xlink="http://www.w3.org/1999/xlink" x="0px" y="0px"
	 width="130.285px" height="54.985px" viewBox="0 0 130.285 54.985" enable-background="new 0 0 130.285 54.985"
	 xml:space="preserve">
<path fill="#D5234A" d="M41.292,37.273c-0.213,0.302-0.149,0.882-0.31,1.237c-0.496-0.032-0.657,0.271-1.237,0.155
	c0.149,0.566,0.812,0.63,0.928,1.237c0.032,0.451-0.637,1.101-1.083,1.547c-2.487-0.336-3.414-3.106-5.567-5.258
	c-1.495-1.495-3.461-3.976-4.794-5.568c-0.483-0.574-0.819-1.431-1.238-1.857c-0.271-0.27-0.708-0.193-0.928-0.463
	c-0.419-0.522-0.419-0.96-1.237-1.701c-1.476-1.347-3.067-2.849-4.639-4.33c-3.151-2.971-6.869-6.109-10.981-8.352
	c0.219,1.122,0.921,1.76,1.237,2.784c1.779,2.281,2.642,5.374,4.331,8.197c0.483,0.812,1.231,1.694,0.928,2.628
	c-0.489,0.284-0.96,0.586-1.856,0.464c0.47,1.9,1.347,3.395,2.32,4.794c0.083,0.754-0.619,0.722-0.774,1.237
	c-2.557,0.175-2.725-1.803-3.557-4.021c-0.882-2.358-1.83-3.91-2.784-5.876c-1.088-2.249-1.45-3.731-2.938-5.414
	C5.599,14.093,3.556,9.087,0,6.033c0.174-0.954,1.14-1.07,0.618-2.32c1.16-0.438,2.172-1.024,3.557-1.238
	c0.444-0.218-0.419-0.838,0-1.082c5.967-2.449,12.101-1.231,18.403,0.309C24.615,2.2,26.613,2.644,28.61,2.94
	c0.271,0.503,0.599,0.947,0.619,1.701c-0.329,0.29-0.567,0.67-0.928,0.928c-3.891-0.658-7.223,0.045-10.207-0.309
	c-0.013-0.665-0.786-0.657-0.31-1.392c-2.931-0.136-4.961-0.309-8.196,0.155c4.027,4.639,8.466,9.363,12.836,14.074
	c4.375,4.723,8.318,9.942,13.299,13.918c0,0.155,0,0.309,0,0.465c0.316,0.147,0.613,0.314,0.929,0.463
	C37.941,34.643,39.474,36.1,41.292,37.273z M4.794,5.105c1.573,0.212,3.853,2.854,5.568,3.402C8.66,7.489,6.792,3.352,4.794,5.105z"
	/>
<g>
	<path fill="#D5234A" d="M56.671,45.335c0,0.22-0.062,0.509-0.186,0.866c-0.289,0.839-0.874,1.513-1.754,2.022
		c-0.812,0.467-1.692,0.701-2.641,0.701c-1.609,0-2.82-0.66-3.631-1.98c-0.688-1.087-1.032-2.483-1.032-4.188
		c0-1.458,0.213-2.834,0.64-4.126c0.481-1.513,1.197-2.682,2.146-3.508c0.701-0.619,1.41-0.928,2.125-0.928
		c1.059,0,1.85,0.509,2.372,1.527c0.413,0.798,0.619,1.781,0.619,2.95c0,0.578-0.09,1.245-0.268,2.001
		c-0.234,0.991-0.537,1.485-0.908,1.485c-0.289,0-0.495-0.151-0.619-0.454c0.082-0.055,0.213-0.151,0.392-0.289
		c0.358-0.344,0.537-1.183,0.537-2.517c0-0.811-0.152-1.589-0.454-2.331c-0.385-0.963-0.915-1.444-1.588-1.444
		c-0.536,0-1.1,0.323-1.692,0.97c-0.44,0.482-0.819,1.039-1.135,1.671c-0.702,1.458-1.052,3.253-1.052,5.385
		c0,1.417,0.248,2.545,0.743,3.383c0.619,1.045,1.581,1.568,2.888,1.568c0.715,0,1.369-0.189,1.96-0.567
		c0.591-0.378,1.045-0.884,1.362-1.517c0.055-0.206,0.172-0.495,0.351-0.866c0.11-0.179,0.248-0.268,0.412-0.268
		C56.533,44.881,56.671,45.032,56.671,45.335z"/>
	<path fill="#D5234A" d="M58.92,48.306c0,0.358-0.193,0.536-0.578,0.536c-0.606,0-0.901-1.245-0.887-3.734l0.062-9.263
		c0-0.151-0.021-0.368-0.062-0.65c-0.041-0.282-0.062-0.492-0.062-0.629c0.261-0.193,0.481-0.289,0.66-0.289
		c0.193,0,0.385,0.069,0.578,0.206c0.193,0.138,0.289,0.303,0.289,0.495c0,0.138-0.034,0.317-0.103,0.536
		c-0.082,0.275-0.131,0.447-0.144,0.516c-0.165,0.936-0.248,2.242-0.248,3.92c0,2.71-0.007,4.016-0.021,3.92
		c0.041,1.692,0.151,2.964,0.33,3.817c0,0.041,0.031,0.134,0.093,0.279C58.888,48.11,58.92,48.223,58.92,48.306z"/>
	<path fill="#D5234A" d="M61.601,40.445c0,0.248-0.059,0.619-0.175,1.114c-0.117,0.495-0.175,0.867-0.175,1.114v4.56
		c0,0.303,0.069,0.715,0.206,1.238c-0.055,0.11-0.131,0.165-0.227,0.165c-0.674,0-1.011-0.323-1.011-0.97v-7.572
		c0.178-0.096,0.351-0.144,0.516-0.144c0.165,0,0.337,0.048,0.516,0.144C61.485,40.191,61.601,40.307,61.601,40.445z M61.993,37.35
		c0,0.468-0.22,0.702-0.66,0.702c-0.262,0-0.502-0.096-0.722-0.289c-0.22-0.192-0.33-0.412-0.33-0.66
		c0-0.467,0.234-0.702,0.701-0.702c0.275,0,0.512,0.09,0.712,0.268C61.893,36.848,61.993,37.075,61.993,37.35z"/>
	<path fill="#D5234A" d="M69.07,46.371c0,0.332-0.282,0.779-0.846,1.339c-0.564,0.561-1.025,0.889-1.382,0.986
		c-0.482,0.152-0.88,0.228-1.197,0.228c-1.004,0-1.774-0.365-2.31-1.096c-0.495-0.648-0.743-1.489-0.743-2.523
		c0-1.061,0.227-2.247,0.681-3.556c0.564-1.626,1.265-2.44,2.104-2.44c0.399,0,0.929,0.196,1.589,0.588
		c0.66,0.392,1.032,0.767,1.114,1.125c0.096,0.426,0.144,0.846,0.144,1.258c0,1.513-0.227,2.27-0.681,2.27
		c-0.11,0-0.241-0.041-0.392-0.124c-0.152-0.083-0.227-0.179-0.227-0.289c0-0.055,0.027-0.127,0.082-0.216
		c0.055-0.089,0.089-0.148,0.103-0.175c0.055-0.178,0.082-0.591,0.082-1.238c0-1.527-0.344-2.29-1.032-2.29
		c-0.756,0-1.376,0.697-1.857,2.09c-0.358,1.076-0.537,2.096-0.537,3.061c0,0.745,0.117,1.365,0.351,1.862
		c0.316,0.648,0.804,0.972,1.465,0.972c0.399,0,0.867-0.208,1.403-0.624c0.481-0.374,0.839-0.77,1.073-1.186
		c0.055-0.139,0.137-0.333,0.248-0.582c0.069-0.097,0.165-0.146,0.289-0.146c0.082,0,0.182,0.093,0.299,0.28
		C69.011,46.132,69.07,46.274,69.07,46.371z"/>
	<path fill="#D5234A" d="M77.343,49.316c-0.345,0.275-0.621,0.413-0.828,0.413c-0.304,0-0.828-0.433-1.573-1.3
		c-0.939-1.114-1.435-1.699-1.491-1.754c-0.166-0.137-0.455-0.461-0.869-0.97c-0.359-0.426-0.677-0.722-0.952-0.887l-0.373,0.495
		v2.043c0,0.124,0.048,0.299,0.144,0.526c0.096,0.227,0.144,0.402,0.144,0.526c0,0.083-0.059,0.162-0.175,0.237
		c-0.117,0.075-0.224,0.114-0.32,0.114c-0.55,0-0.825-0.296-0.825-0.887v-2.888c0-0.178,0.021-0.444,0.062-0.794
		c0.041-0.351,0.062-0.615,0.062-0.794v-5.695c0-0.811-0.032-1.451-0.095-1.918c0-0.069-0.032-0.22-0.095-0.454
		c-0.038-0.193-0.057-0.351-0.057-0.475c0-0.137,0.106-0.275,0.32-0.412c0.213-0.137,0.402-0.206,0.567-0.206
		c0.124,0,0.258,0.038,0.402,0.113c0.144,0.076,0.216,0.169,0.216,0.279c0,0.014-0.037,0.179-0.11,0.495
		c-0.103,0.371-0.153,1.093-0.153,2.166l-0.088,5.983l0.103,0.103c0.442-0.275,1.05-0.784,1.823-1.526
		c0.483-0.495,0.966-0.991,1.45-1.485c0.787-0.798,1.25-1.197,1.388-1.197c0.207,0,0.373,0.093,0.497,0.278
		c0.124,0.186,0.179,0.382,0.166,0.588l-0.021,0.103c-0.526,0.344-1.3,0.963-2.323,1.857c-1.175,1.032-1.762,1.712-1.762,2.043
		c0,0.123,0.207,0.433,0.622,0.928c0.649,0.756,1.291,1.513,1.927,2.269c0.87,0.949,1.609,1.568,2.217,1.857V49.316z"/>
	<path fill="#D5234A" d="M88.979,35.782c0,0.275-0.206,0.412-0.619,0.412c-0.083,0-0.144-0.014-0.186-0.042
		c-0.055-0.591-0.44-0.886-1.155-0.886c-0.674,0-1.197,0.773-1.568,2.319c-0.248,1.091-0.371,2.133-0.371,3.127
		c0.096-0.014,0.22-0.014,0.371,0c0.33,0,0.516,0,0.557,0c0.509,0,0.763,0.152,0.763,0.454c0,0.096-0.014,0.234-0.041,0.412
		c-0.223,0.124-0.571,0.186-1.044,0.186c-0.362,0-0.584,0.028-0.668,0.083c-0.042,0.536-0.063,1.506-0.063,2.909v1.485
		c0,0.66,0.081,1.328,0.244,2.001c0.03,0.069,0.044,0.131,0.044,0.186c0,0.33-0.234,0.495-0.701,0.495
		c-0.413,0-0.619-0.557-0.619-1.671c0-3.026,0.027-4.814,0.082-5.364c0.027,0-0.323,0-1.052,0c-0.317,0-0.474-0.151-0.474-0.454
		c0-0.399,0.275-0.598,0.825-0.598h0.743c0.027-0.275,0.055-0.626,0.082-1.052c0.206-3.659,1.231-5.488,3.074-5.488
		C88.388,34.297,88.979,34.792,88.979,35.782z"/>
	<path fill="#D5234A" d="M93.353,44.447c0,1.183-0.261,2.215-0.784,3.095c-0.619,1.059-1.479,1.589-2.579,1.589
		c-1.114,0-1.946-0.433-2.496-1.3c-0.454-0.715-0.681-1.664-0.681-2.847c0-1.169,0.261-2.317,0.784-3.445
		c0.66-1.389,1.499-2.084,2.517-2.084c0.261,0,0.633,0.151,1.114,0.454C92.644,40.789,93.353,42.302,93.353,44.447z M92.363,44.427
		c0-0.88-0.117-1.671-0.351-2.373c-0.344-0.977-0.874-1.465-1.589-1.465c-0.825,0-1.472,0.544-1.939,1.63
		c-0.358,0.839-0.536,1.74-0.536,2.703c0,0.867,0.124,1.596,0.371,2.187c0.358,0.812,0.915,1.217,1.671,1.217
		c0.825,0,1.451-0.467,1.877-1.403C92.198,46.194,92.363,45.362,92.363,44.427z"/>
	<path fill="#D5234A" d="M98.965,41.167c0,0.055-0.007,0.172-0.021,0.351c-0.179,0.275-0.351,0.412-0.516,0.412
		c-0.11,0-0.206-0.069-0.289-0.206c-0.041-0.867-0.399-1.3-1.073-1.3c-0.44,0-0.874,0.811-1.3,2.434
		c-0.165,0.592-0.247,1.383-0.247,2.373c0,1.266,0.034,2.043,0.103,2.331c0.014,0.041,0.048,0.127,0.103,0.258
		c0.055,0.131,0.082,0.23,0.082,0.299c0,0.303-0.206,0.454-0.619,0.454c-0.467,0-0.701-0.241-0.701-0.722
		c0-0.069,0.017-0.169,0.051-0.299c0.034-0.13,0.052-0.23,0.052-0.299c0-0.756-0.034-1.891-0.103-3.404
		c-0.069-1.513-0.103-2.648-0.103-3.404c0-0.275,0.048-0.444,0.144-0.506c0.096-0.062,0.282-0.093,0.557-0.093
		c0.344,0,0.543,0.124,0.598,0.371c0.014,0.275,0.027,0.544,0.041,0.805c0.358-0.55,0.564-0.859,0.619-0.929
		c0.303-0.344,0.619-0.516,0.949-0.516c0.248,0,0.495,0.076,0.743,0.227c0.137,0.082,0.326,0.296,0.567,0.64
		C98.844,40.789,98.965,41.03,98.965,41.167z"/>
	<path fill="#D5234A" d="M113.654,44.839c0,0.426-0.097,0.805-0.289,1.135c-0.924,1.65-2.51,2.476-4.758,2.476
		c-0.703,0-1.593-0.137-2.669-0.412c0,0.027-0.007,0.055-0.021,0.082c0,0.041,0.027,0.172,0.083,0.392
		c-0.055,0.165-0.156,0.268-0.306,0.31l-0.163-0.082c-0.258,0.027-0.408-0.11-0.448-0.41c-0.041-0.437-0.078-0.676-0.112-0.718
		c-0.034-0.041-0.174-0.116-0.418-0.226c-0.19-0.082-0.285-0.205-0.285-0.369c0-0.205,0.1-0.317,0.299-0.338
		c0.199-0.021,0.306-0.065,0.32-0.133c0,0.014,0-0.096,0-0.328c0-0.232,0.01-0.601,0.031-1.107c0.021-0.506,0.031-0.888,0.031-1.148
		v-0.717c-0.303-0.096-0.454-0.226-0.454-0.389c0-0.205,0.131-0.376,0.392-0.513v-6.929c0-0.11,0.079-0.249,0.237-0.415
		c0.158-0.166,0.292-0.249,0.402-0.249c0.22,0,0.344,0.021,0.371,0.062c0.082,0.082,0.158,0.172,0.227,0.268
		c-0.221,1.266-0.33,2.173-0.33,2.723l0.021,0.124c0.935-2.407,2.331-3.611,4.188-3.611c1.073,0,1.891,0.412,2.455,1.238
		c0.508,0.729,0.763,1.644,0.763,2.744c0,0.825-0.193,1.637-0.578,2.434c-0.44,0.936-1.004,1.513-1.692,1.733
		C112.753,42.687,113.654,43.478,113.654,44.839z M112.623,44.716c0-0.756-0.731-1.245-2.194-1.465
		c-0.594-0.096-1.628-0.144-3.105-0.144c-0.58,0-1.042,0.041-1.387,0.124c-0.014,0.454-0.021,1.396-0.021,2.827
		c0,0.358,0.014,0.681,0.041,0.97c0.662,0.385,1.538,0.578,2.628,0.578c0.883,0,1.746-0.261,2.587-0.784
		C112.14,46.242,112.623,45.541,112.623,44.716z M112.19,38.216c0-2.063-0.752-3.095-2.257-3.095c-1.021,0-1.953,0.667-2.794,2.001
		C106.379,38.32,106,39.455,106,40.527v1.816c-0.055,0,0.455,0,1.532,0c1.586,0,2.739-0.282,3.457-0.846
		C111.789,40.851,112.19,39.757,112.19,38.216z"/>
	<path fill="#D5234A" d="M116.254,40.445c0,0.248-0.059,0.619-0.176,1.114c-0.117,0.495-0.175,0.867-0.175,1.114v4.56
		c0,0.303,0.069,0.715,0.206,1.238c-0.055,0.11-0.13,0.165-0.226,0.165c-0.674,0-1.011-0.323-1.011-0.97v-7.572
		c0.179-0.096,0.351-0.144,0.516-0.144s0.337,0.048,0.516,0.144C116.137,40.191,116.254,40.307,116.254,40.445z M116.646,37.35
		c0,0.468-0.221,0.702-0.661,0.702c-0.261,0-0.502-0.096-0.722-0.289c-0.221-0.192-0.33-0.412-0.33-0.66
		c0-0.467,0.234-0.702,0.702-0.702c0.275,0,0.512,0.09,0.711,0.268C116.545,36.848,116.646,37.075,116.646,37.35z"/>
	<path fill="#D5234A" d="M123.723,44.447c0,1.183-0.262,2.215-0.784,3.095c-0.619,1.059-1.479,1.589-2.579,1.589
		c-1.114,0-1.947-0.433-2.497-1.3c-0.454-0.715-0.681-1.664-0.681-2.847c0-1.169,0.261-2.317,0.784-3.445
		c0.66-1.389,1.499-2.084,2.517-2.084c0.261,0,0.632,0.151,1.114,0.454C123.014,40.789,123.723,42.302,123.723,44.447z
		 M122.732,44.427c0-0.88-0.117-1.671-0.351-2.373c-0.344-0.977-0.873-1.465-1.588-1.465c-0.825,0-1.472,0.544-1.939,1.63
		c-0.358,0.839-0.536,1.74-0.536,2.703c0,0.867,0.124,1.596,0.371,2.187c0.358,0.812,0.914,1.217,1.671,1.217
		c0.825,0,1.451-0.467,1.877-1.403C122.567,46.194,122.732,45.362,122.732,44.427z"/>
</g>
</svg>
